<svg width="6" height="11" viewBox="0 0 6 11" fill="none" xmlns="http://www.w3.org/2000/svg">
<path d="M4.12 2.08954C4.9725 3.38021 3.36 4.55446 2.191 3.71158C3.142 3.93617 4.2765 3.11438 4.12 2.08954ZM3.5 5.45875V10.0833L2.5 11V5.45875C1.082 5.24013 0 4.11217 0 2.75C0 1.23108 1.3435 0 3 0C4.6565 0 6 1.23154 6 2.75C6 4.11217 4.918 5.24013 3.5 5.45875ZM5 2.75C5 1.73892 4.103 0.916667 3 0.916667C1.897 0.916667 1 1.73892 1 2.75C1 3.76108 1.897 4.58333 3 4.58333C4.103 4.58333 5 3.76108 5 2.75Z" fill="#537F55"/>
</svg>
